<?xml version="1.0" encoding="UTF-8" standalone="no"?>
<svg
   version="1.1"
   id="Layer_1"
   width="128"
   height="128"
   viewBox="0 0 42 32"
   enable-background="new 0 0 42 32"
   xml:space="preserve"
   sodipodi:docname="svg_348889.svg"
   inkscape:version="1.4 (e7c3feb100, 2024-10-09)"
   xmlns:inkscape="http://www.inkscape.org/namespaces/inkscape"
   xmlns:sodipodi="http://sodipodi.sourceforge.net/DTD/sodipodi-0.dtd"
   xmlns="http://www.w3.org/2000/svg"
   xmlns:svg="http://www.w3.org/2000/svg"><defs
   id="defs1" /><sodipodi:namedview
   id="namedview1"
   pagecolor="#ffffff"
   bordercolor="#000000"
   borderopacity="0.25"
   inkscape:showpageshadow="2"
   inkscape:pageopacity="0.0"
   inkscape:pagecheckerboard="0"
   inkscape:deskcolor="#d1d1d1"
   inkscape:zoom="2.4141067"
   inkscape:cx="-93.409291"
   inkscape:cy="92.373711"
   inkscape:window-width="2048"
   inkscape:window-height="1080"
   inkscape:window-x="0"
   inkscape:window-y="0"
   inkscape:window-maximized="1"
   inkscape:current-layer="Layer_1" />
<g
   id="SVGRepo_iconCarrier"
   transform="matrix(0.08188103,0,0,0.07517276,0.10780826,-3.6254113)"> <path
   style="fill:#a4e276"
   d="M 256,0 C 114.842,0 0,114.842 0,256 0,397.158 114.842,512 256,512 397.158,512 512,397.158 512,256 512,114.842 397.158,0 256,0 Z"
   id="path1-3" /> <path
   style="fill:#64c37d"
   d="M 0,256 C 0,397.158 114.842,512 256,512 V 0 C 114.842,0 0,114.842 0,256 Z"
   id="path2" /> </g><g
   id="g1"
   style="fill:#666666"
   transform="matrix(0.99298521,0,0,0.99586612,0.27173842,0.01264223)">
	<path
   fill="#828282"
   d="m 36.291311,3.0581964 c -1.348898,0 -2.446611,1.1001635 -2.446611,2.4520732 0,0.7258136 0.322952,1.3723435 0.824508,1.8218903 L 27.492479,18.800506 c -0.302564,-0.134864 -0.636119,-0.212513 -0.987616,-0.212513 -0.707886,0 -1.340743,0.307326 -1.788473,0.790384 l -7.399371,-4.695719 c 0.137011,-0.305692 0.216933,-0.642444 0.216933,-0.998811 0,-1.35191 -1.097713,-2.452073 -2.446611,-2.452073 -1.3489,0 -2.446613,1.100163 -2.446613,2.452073 0,0.738891 0.33437,1.394412 0.851421,1.843958 L 7.8690192,24.498306 C 7.580319,24.377338 7.2638905,24.309497 6.9319668,24.309497 c -1.3488989,0 -2.4466121,1.100163 -2.4466121,2.452073 0,1.351909 1.0977132,2.452073 2.4466121,2.452073 1.3488988,0 2.446612,-1.100164 2.446612,-2.452073 0,-0.725813 -0.3221372,-1.371526 -0.8236927,-1.821073 l 5.6304699,-8.982761 c 0.27973,0.112796 0.583109,0.178184 0.901985,0.178184 0.700546,0 1.32851,-0.29997 1.774609,-0.774038 l 7.403448,4.698172 c -0.131302,0.300788 -0.207147,0.631 -0.207147,0.980012 0,1.35191 1.097714,2.452073 2.446612,2.452073 1.348899,0 2.446613,-1.100163 2.446613,-2.452073 0,-0.70538 -0.302564,-1.337197 -0.78047,-1.785109 L 35.35589,7.7743504 c 0.2887,0.1201515 0.604314,0.1879923 0.935421,0.1879923 1.3489,0 2.446613,-1.1001636 2.446613,-2.4520731 0,-1.3519097 -1.097713,-2.4520732 -2.446613,-2.4520732 z M 8.5630415,26.76157 c 0,0.901546 -0.7315371,1.634716 -1.6310747,1.634716 -0.8995377,0 -1.6310748,-0.73317 -1.6310748,-1.634716 0,-0.901546 0.7315371,-1.634715 1.6310748,-1.634715 0.8995376,0 1.6310747,0.733169 1.6310747,1.634715 z M 15.087341,15.318562 c -0.899538,0 -1.631075,-0.73317 -1.631075,-1.634715 0,-0.901546 0.731537,-1.634716 1.631075,-1.634716 0.899537,0 1.631074,0.73317 1.631074,1.634716 0,0.901545 -0.731537,1.634715 -1.631074,1.634715 z m 11.417522,7.356219 c -0.899538,0 -1.631074,-0.733169 -1.631074,-1.634715 0,-0.901545 0.731536,-1.634715 1.631074,-1.634715 0.899538,0 1.631075,0.73317 1.631075,1.634715 0,0.901546 -0.731537,1.634715 -1.631075,1.634715 z M 36.291311,7.144985 c -0.899537,0 -1.631074,-0.7331699 -1.631074,-1.6347154 0,-0.9015456 0.731537,-1.6347155 1.631074,-1.6347155 0.899539,0 1.631075,0.7331699 1.631075,1.6347155 0,0.9015455 -0.731536,1.6347154 -1.631075,1.6347154 z"
   id="path1"
   style="fill:#666666;stroke-width:0.816447" />
</g>
<ellipse
   style="fill:#d45500;stroke-width:0.280606"
   id="path6"
   cx="7.1487012"
   cy="26.703363"
   rx="1.7736228"
   ry="1.699656" /></svg>
