<?xml version="1.0" encoding="UTF-8" standalone="no"?>
<!-- Uploaded to: SVG Repo, www.svgrepo.com, Generator: SVG Repo Mixer Tools -->

<svg
   width="800px"
   height="800px"
   viewBox="0 0 24 24"
   version="1.1"
   id="svg1"
   sodipodi:docname="pencil-svgrepo-com.svg"
   xml:space="preserve"
   inkscape:version="1.4 (e7c3feb100, 2024-10-09)"
   xmlns:inkscape="http://www.inkscape.org/namespaces/inkscape"
   xmlns:sodipodi="http://sodipodi.sourceforge.net/DTD/sodipodi-0.dtd"
   xmlns="http://www.w3.org/2000/svg"
   xmlns:svg="http://www.w3.org/2000/svg"><defs
     id="defs1" /><sodipodi:namedview
     id="namedview1"
     pagecolor="#ffffff"
     bordercolor="#000000"
     borderopacity="0.25"
     inkscape:showpageshadow="2"
     inkscape:pageopacity="0.0"
     inkscape:pagecheckerboard="0"
     inkscape:deskcolor="#d1d1d1"
     inkscape:zoom="1.4525"
     inkscape:cx="400"
     inkscape:cy="510.15491"
     inkscape:window-width="2560"
     inkscape:window-height="1368"
     inkscape:window-x="0"
     inkscape:window-y="0"
     inkscape:window-maximized="1"
     inkscape:current-layer="svg1" /><title
     id="title1">pencil_fill</title><g
     id="页面-1"
     stroke="none"
     stroke-width="1"
     fill="none"
     fill-rule="evenodd"><g
       id="Editor"
       transform="translate(-960.000000, -48.000000)"><g
         id="pencil_fill"
         transform="translate(960.000000, 48.000000)"><path
           d="M24,0 L24,24 L0,24 L0,0 L24,0 Z M12.5934901,23.257841 L12.5819402,23.2595131 L12.5108777,23.2950439 L12.4918791,23.2987469 L12.4918791,23.2987469 L12.4767152,23.2950439 L12.4056548,23.2595131 C12.3958229,23.2563662 12.3870493,23.2590235 12.3821421,23.2649074 L12.3780323,23.275831 L12.360941,23.7031097 L12.3658947,23.7234994 L12.3769048,23.7357139 L12.4804777,23.8096931 L12.4953491,23.8136134 L12.4953491,23.8136134 L12.5071152,23.8096931 L12.6106902,23.7357139 L12.6232938,23.7196733 L12.6232938,23.7196733 L12.6266527,23.7031097 L12.609561,23.275831 C12.6075724,23.2657013 12.6010112,23.2592993 12.5934901,23.257841 L12.5934901,23.257841 Z M12.8583906,23.1452862 L12.8445485,23.1473072 L12.6598443,23.2396597 L12.6498822,23.2499052 L12.6498822,23.2499052 L12.6471943,23.2611114 L12.6650943,23.6906389 L12.6699349,23.7034178 L12.6699349,23.7034178 L12.678386,23.7104931 L12.8793402,23.8032389 C12.8914285,23.8068999 12.9022333,23.8029875 12.9078286,23.7952264 L12.9118235,23.7811639 L12.8776777,23.1665331 C12.8752882,23.1545897 12.8674102,23.1470016 12.8583906,23.1452862 L12.8583906,23.1452862 Z M12.1430473,23.1473072 C12.1332178,23.1423925 12.1221763,23.1452606 12.1156365,23.1525954 L12.1099173,23.1665331 L12.0757714,23.7811639 C12.0751323,23.7926639 12.0828099,23.8018602 12.0926481,23.8045676 L12.108256,23.8032389 L12.3092106,23.7104931 L12.3186497,23.7024347 L12.3186497,23.7024347 L12.3225043,23.6906389 L12.340401,23.2611114 L12.337245,23.2485176 L12.337245,23.2485176 L12.3277531,23.2396597 L12.1430473,23.1473072 Z"
           id="MingCute"
           fill-rule="nonzero" /><path
           d="M20.1314,3.16091 C18.9598,1.98933 17.0603,1.98933 15.8888,3.16091 L15.1817,3.86801 L20.1314,8.81776 L20.8385,8.11065 C22.0101,6.93908 22.0101,5.03959 20.8385,3.86801 L20.1314,3.16091 Z M18.7172,10.232 L13.7674,5.28223 L4.67645,14.3732 C4.47766,14.572 4.33874,14.8227 4.27553,15.0966 L3.24747,19.5515 C3.08111,20.2724 3.72721,20.9183 4.44792,20.7519 L8.90283,19.7239 C9.17676,19.6607 9.42741,19.5218 9.6262,19.323 L18.7172,10.232 Z"
           id="形状"
           fill="#09244B" /></g></g></g><g
     id="settings_1_fill"
     style="fill:none;fill-rule:nonzero;stroke:none;stroke-width:1"
     transform="matrix(0.52888866,0.01598194,-0.01553979,0.54393705,12.635046,10.854518)"><path
       d="M 24,0 V 24 H 0 V 0 Z m -11.40651,23.257841 -0.01155,0.0017 -0.07106,0.03553 -0.019,0.0037 v 0 l -0.01516,-0.0037 -0.07106,-0.03553 c -0.0098,-0.0031 -0.01861,-4.89e-4 -0.02351,0.0054 l -0.0041,0.01092 -0.01709,0.427279 0.005,0.02039 0.01101,0.01222 0.103573,0.07398 0.01487,0.0039 v 0 l 0.01177,-0.0039 0.103575,-0.07398 0.0126,-0.01604 v 0 l 0.0034,-0.01656 -0.01709,-0.427279 c -0.002,-0.01013 -0.0085,-0.01653 -0.01607,-0.01799 z m 0.264901,-0.112555 -0.01384,0.002 -0.184705,0.09235 -0.01,0.01024 v 0 l -0.0027,0.01121 0.0179,0.429528 0.0048,0.01278 v 0 l 0.0085,0.0071 0.200954,0.09275 c 0.01209,0.0037 0.02289,-2.52e-4 0.02849,-0.008 l 0.004,-0.01406 -0.03415,-0.614631 c -0.0024,-0.01194 -0.01027,-0.01953 -0.01929,-0.02125 z m -0.715344,0.002 c -0.0098,-0.0049 -0.02087,-0.002 -0.02741,0.0053 l -0.0057,0.01394 -0.03415,0.614631 c -6.39e-4,0.0115 0.007,0.0207 0.01688,0.0234 l 0.01561,-0.0013 0.200955,-0.09275 0.0094,-0.0081 v 0 l 0.0039,-0.0118 0.0179,-0.429528 -0.0032,-0.01259 v 0 l -0.0095,-0.0089 z"
       id="MingCute-5"
       fill-rule="nonzero" /><path
       d="m 10.75,2.56687 c 0.7735,-0.44658 1.7265,-0.44658 2.5,0 v 0 l 6.2943,3.63397 c 0.7735,0.44659 1.25,1.2719 1.25,2.16507 v 0 7.26799 c 0,0.8931 -0.4765,1.7184 -1.25,2.165 v 0 l -6.2943,3.634 c -0.7735,0.4466 -1.7265,0.4466 -2.5,0 v 0 l -6.29419,-3.634 c -0.7735,-0.4466 -1.25,-1.2719 -1.25,-2.165 v 0 -7.26799 c 0,-0.89317 0.4765,-1.71848 1.25,-2.16507 v 0 z m 1.250008,6.43302 c -1.656859,0 -3.0000005,1.343142 -3.0000005,3 0,1.656828 1.3431415,3 3.0000005,3 1.656813,0 2.999984,-1.343172 2.999984,-3 0,-1.656858 -1.343171,-3 -2.999984,-3 z"
       id="形状结合"
       fill="#09244b" /></g></svg>
