<?xml version="1.0" encoding="UTF-8" standalone="no"?>
<svg
   height="24px"
   viewBox="0 -960 960 960"
   width="24px"
   fill="#000000"
   version="1.1"
   id="svg1"
   sodipodi:docname="ic_egeniouss_receiver_black_24dp.svg"
   inkscape:version="1.4 (e7c3feb100, 2024-10-09)"
   xmlns:inkscape="http://www.inkscape.org/namespaces/inkscape"
   xmlns:sodipodi="http://sodipodi.sourceforge.net/DTD/sodipodi-0.dtd"
   xmlns="http://www.w3.org/2000/svg"
   xmlns:svg="http://www.w3.org/2000/svg">
  <defs
     id="defs1" />
  <sodipodi:namedview
     id="namedview1"
     pagecolor="#ffffff"
     bordercolor="#000000"
     borderopacity="0.25"
     inkscape:showpageshadow="2"
     inkscape:pageopacity="0.0"
     inkscape:pagecheckerboard="0"
     inkscape:deskcolor="#d1d1d1"
     inkscape:zoom="48.416667"
     inkscape:cx="12"
     inkscape:cy="12"
     inkscape:window-width="2560"
     inkscape:window-height="1368"
     inkscape:window-x="0"
     inkscape:window-y="0"
     inkscape:window-maximized="1"
     inkscape:current-layer="svg1" />
  <path
     d="M480-80q-83 0-156-31.5T197-197q-54-54-85.5-127T80-480q0-83 31.5-156T197-763q54-54 127-85.5T480-880h40v331q18 11 29 28.5t11 40.5q0 33-23.5 56.5T480-400q-33 0-56.5-23.5T400-480q0-23 11-41t29-28v-86q-52 14-86 56.5T320-480q0 66 47 113t113 47q66 0 113-47t47-113q0-36-14.5-66.5T586-600l57-57q35 33 56 78.5t21 98.5q0 100-70 170t-170 70q-100 0-170-70t-70-170q0-90 57-156.5T440-717v-81q-119 15-199.5 105T160-480q0 134 93 227t227 93q134 0 227-93t93-227q0-69-27-129t-74-104l57-57q57 55 90.5 129.5T880-480q0 83-31.5 156T763-197q-54 54-127 85.5T480-80Z"
     id="path1"
     style="fill:#002255" />
</svg>
