<?xml version="1.0" encoding="UTF-8" standalone="no"?>
<!-- Uploaded to: SVG Repo, www.svgrepo.com, Transformed by: SVG Repo Mixer Tools -->

<svg
   width="800px"
   height="800px"
   viewBox="0 0 16 16"
   fill="none"
   version="1.1"
   id="svg1"
   sodipodi:docname="folder-svgrepo-com.svg"
   xml:space="preserve"
   inkscape:version="1.4 (e7c3feb100, 2024-10-09)"
   xmlns:inkscape="http://www.inkscape.org/namespaces/inkscape"
   xmlns:sodipodi="http://sodipodi.sourceforge.net/DTD/sodipodi-0.dtd"
   xmlns="http://www.w3.org/2000/svg"
   xmlns:svg="http://www.w3.org/2000/svg"><defs
     id="defs1" /><sodipodi:namedview
     id="namedview1"
     pagecolor="#ffffff"
     bordercolor="#000000"
     borderopacity="0.25"
     inkscape:showpageshadow="2"
     inkscape:pageopacity="0.0"
     inkscape:pagecheckerboard="0"
     inkscape:deskcolor="#d1d1d1"
     inkscape:zoom="1.4525"
     inkscape:cx="400"
     inkscape:cy="400"
     inkscape:window-width="2560"
     inkscape:window-height="1368"
     inkscape:window-x="0"
     inkscape:window-y="0"
     inkscape:window-maximized="1"
     inkscape:current-layer="svg1" /><g
     id="SVGRepo_bgCarrier"
     stroke-width="0" /><g
     id="SVGRepo_tracerCarrier"
     stroke-linecap="round"
     stroke-linejoin="round" /><g
     id="SVGRepo_iconCarrier"><path
       d="M0 1H6L9 4H16V14H0V1Z"
       fill="#09244b"
       id="path1" /></g><g
     style="fill:#e66100"
     id="g3"
     transform="matrix(0.21703296,0,0,0.23154673,1.7931775,2.5989803)"><g
       id="SVGRepo_bgCarrier-3"
       stroke-width="0" /><g
       id="SVGRepo_tracerCarrier-6"
       stroke-linecap="round"
       stroke-linejoin="round" /><g
       id="SVGRepo_iconCarrier-7"> <g
   id="g2"> <g
   id="g1"> <path
   d="m 45.567,10.851 h -29.16 l -2.72,-6.67 C 13.534,3.805 13.168,3.559 12.761,3.559 c -0.406,0 -0.772,0.246 -0.926,0.622 l -2.997,7.346 -7.912,0.581 c -0.405,0.029 -0.752,0.302 -0.878,0.688 -0.125,0.386 -0.004,0.811 0.306,1.072 l 6.061,5.12 -1.894,7.704 c -0.097,0.396 0.055,0.809 0.383,1.047 0.329,0.239 0.771,0.256 1.115,0.041 l 5.743,-3.562 v 10.957 6.835 c 0,0.553 0.448,1 1,1 h 32.806 c 0.553,0 1,-0.447 1,-1 V 35.175 19.165 11.85 C 46.567,11.298 46.12,10.851 45.567,10.851 Z m -2.435,21.307 c -0.049,-0.028 -0.095,-0.06 -0.146,-0.088 -0.475,-0.271 -0.971,-0.524 -1.479,-0.767 -0.095,-0.045 -0.189,-0.091 -0.285,-0.135 -0.505,-0.23 -1.025,-0.447 -1.562,-0.647 -0.097,-0.037 -0.195,-0.07 -0.293,-0.105 -0.557,-0.201 -1.125,-0.391 -1.709,-0.559 -0.04,-0.012 -0.082,-0.021 -0.121,-0.033 -0.574,-0.16 -1.161,-0.305 -1.758,-0.433 -0.082,-0.019 -0.162,-0.037 -0.244,-0.055 -0.6,-0.123 -1.211,-0.228 -1.828,-0.315 -0.118,-0.017 -0.235,-0.033 -0.354,-0.049 -0.617,-0.081 -1.241,-0.146 -1.873,-0.191 -0.102,-0.006 -0.204,-0.012 -0.307,-0.018 -0.665,-0.041 -1.333,-0.068 -2.009,-0.068 -0.677,0 -1.346,0.027 -2.01,0.068 -0.103,0.006 -0.205,0.012 -0.307,0.018 -0.631,0.045 -1.256,0.11 -1.873,0.191 -0.118,0.016 -0.235,0.032 -0.353,0.049 -0.618,0.09 -1.229,0.192 -1.829,0.315 -0.082,0.018 -0.162,0.036 -0.243,0.055 -0.597,0.128 -1.185,0.271 -1.76,0.435 -0.04,0.011 -0.08,0.021 -0.12,0.03 -0.585,0.168 -1.153,0.357 -1.711,0.56 -0.098,0.035 -0.195,0.068 -0.292,0.104 -0.536,0.201 -1.057,0.418 -1.563,0.649 -0.095,0.043 -0.188,0.088 -0.281,0.133 -0.51,0.242 -1.008,0.495 -1.483,0.768 -0.048,0.028 -0.093,0.059 -0.142,0.086 -0.46,0.27 -0.902,0.553 -1.326,0.85 -0.036,0.023 -0.077,0.046 -0.112,0.07 V 24.22 l 5.741,3.562 c 0.084,0.053 0.174,0.09 0.266,0.114 0.031,0.009 0.063,0.009 0.096,0.015 0.055,0.009 0.11,0.021 0.166,0.021 0.006,0 0.012,-0.003 0.018,-0.003 0.068,-10e-4 0.135,-0.017 0.203,-0.031 0.031,-0.008 0.063,-0.008 0.093,-0.018 0.097,-0.032 0.189,-0.078 0.274,-0.14 0.329,-0.238 0.48,-0.652 0.383,-1.047 l -1.604,-6.527 h 25.168 v 12.91 c -0.035,-0.024 -0.076,-0.047 -0.111,-0.07 -0.419,-0.297 -0.86,-0.58 -1.32,-0.848 z m 1.435,-19.307 v 5.315 H 20.083 l 5.086,-4.298 c 0.076,-0.063 0.139,-0.138 0.19,-0.218 0.021,-0.03 0.03,-0.063 0.046,-0.097 0.027,-0.054 0.057,-0.105 0.073,-0.162 0.011,-0.037 0.013,-0.076 0.02,-0.114 0.01,-0.056 0.021,-0.11 0.021,-0.168 0,-0.04 -0.009,-0.08 -0.014,-0.12 C 25.5,12.943 25.501,12.896 25.488,12.85 Z"
   id="path1-5" /> </g> </g> </g></g></svg>
