<?xml version="1.0" encoding="UTF-8" standalone="no"?>
<!-- Uploaded to: SVG Repo, www.svgrepo.com, Transformed by: SVG Repo Mixer Tools -->

<svg
   width="800px"
   height="800px"
   viewBox="0 0 24 24"
   fill="none"
   version="1.1"
   id="svg1"
   sodipodi:docname="file-svgrepo-com.svg"
   xml:space="preserve"
   inkscape:version="1.4 (e7c3feb100, 2024-10-09)"
   xmlns:inkscape="http://www.inkscape.org/namespaces/inkscape"
   xmlns:sodipodi="http://sodipodi.sourceforge.net/DTD/sodipodi-0.dtd"
   xmlns="http://www.w3.org/2000/svg"
   xmlns:svg="http://www.w3.org/2000/svg"><defs
     id="defs1" /><sodipodi:namedview
     id="namedview1"
     pagecolor="#ffffff"
     bordercolor="#000000"
     borderopacity="0.25"
     inkscape:showpageshadow="2"
     inkscape:pageopacity="0.0"
     inkscape:pagecheckerboard="0"
     inkscape:deskcolor="#d1d1d1"
     inkscape:zoom="1.4525"
     inkscape:cx="400"
     inkscape:cy="400"
     inkscape:window-width="2560"
     inkscape:window-height="1368"
     inkscape:window-x="0"
     inkscape:window-y="0"
     inkscape:window-maximized="1"
     inkscape:current-layer="svg1" /><g
     id="SVGRepo_bgCarrier"
     stroke-width="0" /><g
     id="SVGRepo_tracerCarrier"
     stroke-linecap="round"
     stroke-linejoin="round" /><g
     id="SVGRepo_iconCarrier"><path
       d="M19 9V17.8C19 18.9201 19 19.4802 18.782 19.908C18.5903 20.2843 18.2843 20.5903 17.908 20.782C17.4802 21 16.9201 21 15.8 21H8.2C7.07989 21 6.51984 21 6.09202 20.782C5.71569 20.5903 5.40973 20.2843 5.21799 19.908C5 19.4802 5 18.9201 5 17.8V6.2C5 5.07989 5 4.51984 5.21799 4.09202C5.40973 3.71569 5.71569 3.40973 6.09202 3.21799C6.51984 3 7.0799 3 8.2 3H13M19 9L13 3M19 9H14C13.4477 9 13 8.55228 13 8V3"
       stroke="#ff7800"
       stroke-width="2"
       stroke-linecap="round"
       stroke-linejoin="round"
       id="path1" /></g><g
     style="fill:#000000"
     id="g1"
     transform="matrix(0.07683305,0,0,0.09067164,7.7576592,9.9564583)"><g
       id="SVGRepo_bgCarrier-7"
       stroke-width="0" /><g
       id="SVGRepo_tracerCarrier-0"
       stroke-linecap="round"
       stroke-linejoin="round" /><g
       id="SVGRepo_iconCarrier-9"><path
         d="M 50.002,0 C 30.763,0 15,15.718 15,34.902 c 0,7.432 2.374,14.34 6.392,20.019 L 45.73,96.994 c 3.409,4.453 5.675,3.607 8.51,-0.235 L 81.083,51.076 c 0.542,-0.981 0.967,-2.026 1.338,-3.092 A 34.446,34.446 0 0 0 85,34.902 C 85,15.718 69.24,0 50.002,0 Z m 0,16.354 c 10.359,0 18.597,8.218 18.597,18.548 0,10.33 -8.238,18.544 -18.597,18.544 -10.36,0 -18.601,-8.215 -18.601,-18.544 0,-10.33 8.241,-18.548 18.6,-18.548 z"
         fill="#ff7800"
         id="path1-3" /></g></g></svg>
