<?xml version="1.0" encoding="UTF-8" standalone="no"?>
<!-- Uploaded to: SVG Repo, www.svgrepo.com, Transformed by: SVG Repo Mixer Tools -->

<svg
   height="800px"
   width="800px"
   version="1.1"
   id="Layer_1"
   viewBox="0 0 488.8 488.8"
   xml:space="preserve"
   fill="#000000"
   sodipodi:docname="add-svgrepo-com.svg"
   inkscape:version="1.4 (e7c3feb100, 2024-10-09)"
   xmlns:inkscape="http://www.inkscape.org/namespaces/inkscape"
   xmlns:sodipodi="http://sodipodi.sourceforge.net/DTD/sodipodi-0.dtd"
   xmlns="http://www.w3.org/2000/svg"
   xmlns:svg="http://www.w3.org/2000/svg"><defs
   id="defs4" /><sodipodi:namedview
   id="namedview4"
   pagecolor="#ffffff"
   bordercolor="#000000"
   borderopacity="0.25"
   inkscape:showpageshadow="2"
   inkscape:pageopacity="0.0"
   inkscape:pagecheckerboard="0"
   inkscape:deskcolor="#d1d1d1"
   inkscape:zoom="1.4525"
   inkscape:cx="400"
   inkscape:cy="400"
   inkscape:window-width="2560"
   inkscape:window-height="1368"
   inkscape:window-x="0"
   inkscape:window-y="0"
   inkscape:window-maximized="1"
   inkscape:current-layer="Layer_1" />

<g
   id="SVGRepo_bgCarrier"
   stroke-width="0" />

<g
   id="SVGRepo_tracerCarrier"
   stroke-linecap="round"
   stroke-linejoin="round" />

<g
   id="SVGRepo_iconCarrier"
   transform="translate(5.8003469e-8,0.84130808)"> <g
   id="g4"> <g
   id="g3"> <path
   style="fill:#09244b"
   d="M 488.8,383 V 9.9 C 488.8,4.4 484.4,0 478.9,0 H 105.8 c -5.5,0 -9.9,4.4 -9.9,9.9 V 383 c 0,5.5 4.4,9.9 9.9,9.9 h 373.1 c 5.5,0 9.9,-4.4 9.9,-9.9 z M 469,373.1 H 115.7 V 19.8 H 469 Z"
   id="path1" /> <path
   style="fill:#09244b"
   d="M 9.9,488.8 H 383 c 5.5,0 9.9,-4.4 9.9,-9.9 0,-5.5 -4.4,-9.9 -9.9,-9.9 H 19.8 V 105.8 c 0,-5.5 -4.4,-9.9 -9.9,-9.9 -5.5,0 -9.9,4.4 -9.9,9.9 v 373.1 c 0,5.5 4.4,9.9 9.9,9.9 z"
   id="path2" /> <path
   style="fill:#ffffff"
   d="m 211.8,206.3 h 70.7 V 277 c 0,5.5 4.4,9.9 9.9,9.9 5.5,0 9.9,-4.4 9.9,-9.9 V 206.3 H 373 c 5.5,0 9.9,-4.4 9.9,-9.9 0,-5.5 -4.4,-9.9 -9.9,-9.9 h -70.7 v -70.7 c 0,-5.5 -4.4,-9.9 -9.9,-9.9 -5.5,0 -9.9,4.4 -9.9,9.9 v 70.7 h -70.7 c -5.5,0 -9.9,4.4 -9.9,9.9 0,5.5 4.4,9.9 9.9,9.9 z"
   id="path3" /> </g> </g> </g>

<g
   style="fill:none"
   id="g5"
   transform="matrix(13.110385,0,0,14.36965,138.39938,22.555223)"><g
     id="SVGRepo_bgCarrier-3"
     stroke-width="0" /><g
     id="SVGRepo_tracerCarrier-5"
     stroke-linecap="round"
     stroke-linejoin="round" /><g
     id="SVGRepo_iconCarrier-6"><path
       fill-rule="evenodd"
       clip-rule="evenodd"
       d="M 10.6875,3.75 C 8.96439,3.75 7.5,5.23565 7.5,7.15385 v 8.30765 c 0,2.6829 2.05201,4.7885 4.5,4.7885 2.448,0 4.5,-2.1056 4.5,-4.7885 V 7.15385 H 18 v 8.30765 c 0,3.4348 -2.649,6.2885 -6,6.2885 -3.351,0 -6,-2.8537 -6,-6.2885 V 7.15385 C 6,4.48383 8.06137,2.25 10.6875,2.25 c 2.6261,0 4.6875,2.23383 4.6875,4.90385 v 8.30765 c 0,1.9054 -1.4737,3.5193 -3.375,3.5193 -1.9013,0 -3.375,-1.6139 -3.375,-3.5193 V 7.15385 h 1.5 v 8.30765 c 0,1.1535 0.8768,2.0193 1.875,2.0193 0.9982,0 1.875,-0.8658 1.875,-2.0193 V 7.15385 C 13.875,5.23565 12.4106,3.75 10.6875,3.75 Z"
       fill="#ff7800"
       id="path1-2" /></g></g></svg>
