<!DOCTYPE svg PUBLIC "-//W3C//DTD SVG 1.1//EN" "http://www.w3.org/Graphics/SVG/1.1/DTD/svg11.dtd">
<!-- Uploaded to: SVG Repo, www.svgrepo.com, Transformed by: SVG Repo Mixer Tools -->
<svg width="800px" height="800px" viewBox="0 0 100 100" xmlns="http://www.w3.org/2000/svg" xmlns:xlink="http://www.w3.org/1999/xlink" aria-hidden="true" role="img" class="iconify iconify--gis" preserveAspectRatio="xMidYMid meet" fill="#000000">
<g id="SVGRepo_bgCarrier" stroke-width="0"/>
<g id="SVGRepo_tracerCarrier" stroke-linecap="round" stroke-linejoin="round"/>
<g id="SVGRepo_iconCarrier">
<path d="M70.285 9.965a1.601 1.601 0 0 0-1.639 1.61l.37 64.608a1.601 1.601 0 0 0 .925 1.444l25.282 11.744a1.601 1.601 0 0 0 2.277-1.453V23.483a1.601 1.601 0 0 0-.926-1.453L70.923 10.113a1.601 1.601 0 0 0-.638-.148zm-7.53.36a1.601 1.601 0 0 0-.653.149l-26.35 12.242a1.601 1.601 0 0 0-.925 1.461l.367 64.264a1.601 1.601 0 0 0 2.276 1.445l26.35-12.242a1.601 1.601 0 0 0 .926-1.461l-.367-64.264a1.601 1.601 0 0 0-1.624-1.593zm-58.616.318a1.601 1.601 0 0 0-1.639 1.6v64.434a1.601 1.601 0 0 0 .926 1.45l25.222 11.72a1.601 1.601 0 0 0 2.276-1.46l-.369-64.608a1.601 1.601 0 0 0-.926-1.445L4.777 10.791a1.601 1.601 0 0 0-.638-.148z" fill="#ffffff" fill-rule="evenodd"/>
</g>
</svg>