<?xml version="1.0" encoding="UTF-8" standalone="no"?>
<!-- Uploaded to: SVG Repo, www.svgrepo.com, Transformed by: SVG Repo Mixer Tools -->

<svg
   width="800px"
   height="800px"
   viewBox="0 0 24 24"
   fill="none"
   version="1.1"
   id="svg1"
   sodipodi:docname="ic_open_black_24dp (copy).svg"
   inkscape:version="1.4 (e7c3feb100, 2024-10-09)"
   xmlns:inkscape="http://www.inkscape.org/namespaces/inkscape"
   xmlns:sodipodi="http://sodipodi.sourceforge.net/DTD/sodipodi-0.dtd"
   xmlns="http://www.w3.org/2000/svg"
   xmlns:svg="http://www.w3.org/2000/svg">
  <defs
     id="defs1" />
  <sodipodi:namedview
     id="namedview1"
     pagecolor="#ffffff"
     bordercolor="#000000"
     borderopacity="0.25"
     inkscape:showpageshadow="2"
     inkscape:pageopacity="0.0"
     inkscape:pagecheckerboard="0"
     inkscape:deskcolor="#d1d1d1"
     inkscape:zoom="0.72625"
     inkscape:cx="209.29432"
     inkscape:cy="216.179"
     inkscape:window-width="1277"
     inkscape:window-height="1214"
     inkscape:window-x="549"
     inkscape:window-y="157"
     inkscape:window-maximized="0"
     inkscape:current-layer="svg1" />
  <g
     id="SVGRepo_bgCarrier"
     stroke-width="0" />
  <g
     id="SVGRepo_tracerCarrier"
     stroke-linecap="round"
     stroke-linejoin="round" />
  <g
     id="SVGRepo_iconCarrier">
    <path
       fill-rule="evenodd"
       clip-rule="evenodd"
       d="M1 5C1 3.34315 2.34315 2 4 2H8.55848C9.84977 2 10.9962 2.82629 11.4045 4.05132L11.7208 5H20C21.1046 5 22 5.89543 22 7V9.00961C23.1475 9.12163 23.9808 10.196 23.7695 11.3578L22.1332 20.3578C21.9603 21.3087 21.132 22 20.1654 22H3C1.89543 22 1 21.1046 1 20V5ZM20 9V7H11.7208C10.8599 7 10.0956 6.44914 9.82339 5.63246L9.50716 4.68377C9.37105 4.27543 8.98891 4 8.55848 4H4C3.44772 4 3 4.44772 3 5V12.2709L3.35429 10.588C3.54913 9.66249 4.36562 9 5.31139 9H20ZM3.36634 20C3.41777 19.9109 3.4562 19.8122 3.47855 19.706L5.31139 11L21 11H21.8018L20.1654 20L3.36634 20Z"
       fill="#09244b"
       id="path1" />
  </g>
  <path
     d="m 17.010965,11.850742 0.264661,1.177025 c 0.176451,0.06539 0.342009,0.133396 0.496395,0.206624 0.155848,0.07323 0.312307,0.159547 0.474339,0.264951 l 1.279213,-0.353107 0.882218,1.333962 -1.014549,0.784682 c 0.0293,0.156935 0.0441,0.326951 0.0441,0.510043 0,0.183085 -0.0148,0.353107 -0.0441,0.510045 l 1.014549,0.784682 -0.882218,1.333959 -1.279213,-0.353107 c -0.161739,0.104633 -0.31995,0.193563 -0.474339,0.264951 -0.155848,0.07323 -0.31995,0.141233 -0.496395,0.206625 l -0.264661,1.177024 h -1.764433 l -0.264661,-1.177024 c -0.176451,-0.06539 -0.342005,-0.133396 -0.496394,-0.206625 -0.155848,-0.07323 -0.312304,-0.159546 -0.474043,-0.264951 l -1.279216,0.353107 -0.882215,-1.333959 1.014549,-0.784682 c -0.0293,-0.157707 -0.04411,-0.327738 -0.04411,-0.510829 0,-0.183086 0.0148,-0.353108 0.04411,-0.510045 L 11.85,14.479428 l 0.882215,-1.333959 1.279216,0.353107 c 0.161739,-0.104633 0.319656,-0.193563 0.474043,-0.264951 0.155848,-0.07323 0.319952,-0.141232 0.496394,-0.206624 l 0.264661,-1.177025 z m -0.882215,2.354049 c -0.48522,0 -0.900742,0.154323 -1.245983,0.461131 -0.345536,0.307333 -0.51845,0.676659 -0.51845,1.108234 0,0.431574 0.17349,0.801159 0.51845,1.108234 0.345534,0.307333 0.760763,0.46113 1.245983,0.46113 0.485217,0 0.900742,-0.154322 1.245983,-0.46113 0.345534,-0.307336 0.51845,-0.67666 0.51845,-1.108234 0,-0.431575 -0.17349,-0.801163 -0.51845,-1.108234 -0.345389,-0.307464 -0.760766,-0.461131 -1.245983,-0.461131 z"
     id="path2"
     style="fill:#002255;stroke-width:0.0208005" />
</svg>
