<?xml version="1.0" encoding="UTF-8" standalone="no"?>
<svg
   width="24"
   height="24"
   version="1.1"
   id="svg11"
   sodipodi:docname="ic_qr_nfc_code_black_24dp.svg"
   inkscape:version="1.4 (e7c3feb100, 2024-10-09)"
   xmlns:inkscape="http://www.inkscape.org/namespaces/inkscape"
   xmlns:sodipodi="http://sodipodi.sourceforge.net/DTD/sodipodi-0.dtd"
   xmlns="http://www.w3.org/2000/svg"
   xmlns:svg="http://www.w3.org/2000/svg">
  <defs
     id="defs11" />
  <sodipodi:namedview
     id="namedview11"
     pagecolor="#ffffff"
     bordercolor="#000000"
     borderopacity="0.25"
     inkscape:showpageshadow="2"
     inkscape:pageopacity="0.0"
     inkscape:pagecheckerboard="0"
     inkscape:deskcolor="#d1d1d1"
     inkscape:zoom="48.416667"
     inkscape:cx="12"
     inkscape:cy="12"
     inkscape:window-width="2560"
     inkscape:window-height="1368"
     inkscape:window-x="0"
     inkscape:window-y="0"
     inkscape:window-maximized="1"
     inkscape:current-layer="svg11" />
  <path
     d="m10 10v2.9434a2.5 2.5 0 0 0 0.5 0.056641 2.5 2.5 0 0 0 2.5-2.5 2.5 2.5 0 0 0-0.050781-0.5h-2.9492z"
     style="paint-order:stroke markers fill"
     id="path1" />
  <path
     d="m10 9v-4h2v2h2v2z"
     id="path2" />
  <path
     d="m9 12h-2v-2h2z"
     id="path3" />
  <g
     fill="#80cc28"
     id="g6"
     style="fill:#ff6600">
    <path
       d="m15 3v6h6v-6h-6zm1.5 1.5h3v3h-3v-3z"
       id="path4"
       style="fill:#ff6600" />
    <path
       d="m3 15v6h6v-6h-6zm1.5 1.5h3v3h-3v-3z"
       id="path5"
       style="fill:#ff6600" />
    <path
       d="m3 3v6h6v-6h-6zm1.5 1.5h3v3h-3v-3z"
       id="path6"
       style="fill:#ff6600" />
  </g>
  <path
     d="m12 5v-2h2v2z"
     id="path7" />
  <path
     d="m3 12v-2h2v2z"
     id="path8" />
  <path
     d="m5 14v-2h2v2z"
     id="path9" />
  <path
     d="m11 20c6 0 9-3 9-9"
     fill="none"
     stroke="#000"
     stroke-linecap="round"
     stroke-width="2"
     id="path10" />
  <path
     d="m11 16c3 0.03497 5.0219-2 5-5"
     fill="none"
     stroke="#000"
     stroke-linecap="round"
     stroke-width="2"
     id="path11" />
</svg>
