<?xml version="1.0" encoding="UTF-8" standalone="no"?>
<svg
   width="24"
   height="24"
   version="1.1"
   id="svg5"
   sodipodi:docname="ic_tcp_receiver_black_24dp.svg"
   inkscape:version="1.4 (e7c3feb100, 2024-10-09)"
   xmlns:inkscape="http://www.inkscape.org/namespaces/inkscape"
   xmlns:sodipodi="http://sodipodi.sourceforge.net/DTD/sodipodi-0.dtd"
   xmlns="http://www.w3.org/2000/svg"
   xmlns:svg="http://www.w3.org/2000/svg">
  <defs
     id="defs5" />
  <sodipodi:namedview
     id="namedview5"
     pagecolor="#ffffff"
     bordercolor="#000000"
     borderopacity="0.25"
     inkscape:showpageshadow="2"
     inkscape:pageopacity="0.0"
     inkscape:pagecheckerboard="0"
     inkscape:deskcolor="#d1d1d1"
     inkscape:zoom="48.416667"
     inkscape:cx="12"
     inkscape:cy="12"
     inkscape:window-width="2560"
     inkscape:window-height="1368"
     inkscape:window-x="0"
     inkscape:window-y="0"
     inkscape:window-maximized="1"
     inkscape:current-layer="svg5" />
  <path
     d="m17 22-1.4-1.4 4.55-4.6-4.55-4.6 1.4-1.4 6 6zm-10 0-6-6 6-6 1.4 1.4-4.55 4.6 4.55 4.6zm1-5q-0.425 0-0.713-0.288-0.287-0.287-0.287-0.712t0.287-0.713q0.288-0.287 0.713-0.287t0.713 0.287q0.287 0.288 0.287 0.713t-0.287 0.712q-0.288 0.288-0.713 0.288zm4 0q-0.425 0-0.712-0.288-0.288-0.287-0.288-0.712t0.288-0.713q0.287-0.287 0.712-0.287t0.713 0.287q0.287 0.288 0.287 0.713t-0.287 0.712q-0.288 0.288-0.713 0.288zm4 0q-0.425 0-0.712-0.288-0.288-0.287-0.288-0.712t0.288-0.713q0.287-0.287 0.712-0.287t0.712 0.287q0.288 0.288 0.288 0.713t-0.288 0.712q-0.287 0.288-0.712 0.288z"
     id="path1"
     style="fill:#00112b" />
  <g
     fill="none"
     stroke="#000"
     stroke-width="1px"
     id="g5">
    <path
       d="m15.5 8v-5.5h2c0.99857-0.0019 1-0.00369 1 1v1c0.0052 0.99719 0.0037 1-1 1h-1.5"
       id="path2" />
    <path
       d="m5 2.5h5"
       id="path3" />
    <path
       d="m7.5 2v6"
       id="path4" />
    <path
       d="m14 2.5h-2.5c-0.986 0.00101-1-0.00369-1 1v3c-0.0092 0.99356-0.0037 1 1 1h2.5"
       id="path5" />
  </g>
</svg>
